<mxfile host="app.diagrams.net" agent="Mozilla/5.0 (X11; Linux x86_64) AppleWebKit/537.36 (KHTML, like Gecko) Chrome/130.0.0.0 Safari/537.36" version="25.0.3">
  <diagram name="Страница — 1" id="oBCWE1gwKsoiFBKlAs1y">
    <mxGraphModel dx="2261" dy="1911" grid="1" gridSize="10" guides="1" tooltips="1" connect="1" arrows="1" fold="1" page="1" pageScale="1" pageWidth="827" pageHeight="1169" math="0" shadow="0">
      <root>
        <mxCell id="0" />
        <mxCell id="1" parent="0" />
        <mxCell id="iaNGk2XYDdVEJVMVyS7h-15" value="" style="rounded=1;whiteSpace=wrap;html=1;fillColor=#e1d5e7;strokeColor=#9673a6;" parent="1" vertex="1">
          <mxGeometry x="60" y="813.75" width="1090" height="80" as="geometry" />
        </mxCell>
        <mxCell id="iaNGk2XYDdVEJVMVyS7h-1" value="" style="rounded=1;whiteSpace=wrap;html=1;fillColor=#dae8fc;strokeColor=#6c8ebf;" parent="1" vertex="1">
          <mxGeometry x="60" y="160" width="1090" height="80" as="geometry" />
        </mxCell>
        <mxCell id="iaNGk2XYDdVEJVMVyS7h-2" value="&lt;h2&gt;master&lt;/h2&gt;" style="rounded=1;whiteSpace=wrap;html=1;" parent="1" vertex="1">
          <mxGeometry x="-130" y="160" width="140" height="70" as="geometry" />
        </mxCell>
        <mxCell id="iaNGk2XYDdVEJVMVyS7h-3" value="" style="rounded=1;whiteSpace=wrap;html=1;fillColor=#d5e8d4;strokeColor=#82b366;" parent="1" vertex="1">
          <mxGeometry x="57.5" y="480" width="1090" height="80" as="geometry" />
        </mxCell>
        <mxCell id="iaNGk2XYDdVEJVMVyS7h-4" value="&lt;h2&gt;release-x.y&lt;/h2&gt;" style="rounded=1;whiteSpace=wrap;html=1;" parent="1" vertex="1">
          <mxGeometry x="-130" y="480" width="140" height="60" as="geometry" />
        </mxCell>
        <mxCell id="iaNGk2XYDdVEJVMVyS7h-5" value="" style="rounded=1;whiteSpace=wrap;html=1;fillColor=#ffe6cc;strokeColor=#d79b00;" parent="1" vertex="1">
          <mxGeometry x="60" y="320" width="1090" height="80" as="geometry" />
        </mxCell>
        <mxCell id="iaNGk2XYDdVEJVMVyS7h-6" value="&lt;h2&gt;*task-N&lt;/h2&gt;" style="rounded=1;whiteSpace=wrap;html=1;" parent="1" vertex="1">
          <mxGeometry x="-130" y="320" width="140" height="80" as="geometry" />
        </mxCell>
        <mxCell id="iaNGk2XYDdVEJVMVyS7h-13" value="x.y.q" style="rounded=1;whiteSpace=wrap;html=1;" parent="1" vertex="1">
          <mxGeometry x="60" y="440" width="70" height="20" as="geometry" />
        </mxCell>
        <mxCell id="iaNGk2XYDdVEJVMVyS7h-14" value="" style="endArrow=classic;html=1;rounded=0;exitX=0.5;exitY=1;exitDx=0;exitDy=0;entryX=0.5;entryY=0;entryDx=0;entryDy=0;" parent="1" source="iaNGk2XYDdVEJVMVyS7h-13" target="iaNGk2XYDdVEJVMVyS7h-8" edge="1">
          <mxGeometry width="50" height="50" relative="1" as="geometry">
            <mxPoint x="95" y="370" as="sourcePoint" />
            <mxPoint x="95" y="420" as="targetPoint" />
          </mxGeometry>
        </mxCell>
        <mxCell id="iaNGk2XYDdVEJVMVyS7h-16" value="&lt;h2&gt;*release-x.[y-n]&lt;/h2&gt;" style="rounded=1;whiteSpace=wrap;html=1;" parent="1" vertex="1">
          <mxGeometry x="-130" y="813.75" width="140" height="60" as="geometry" />
        </mxCell>
        <mxCell id="iaNGk2XYDdVEJVMVyS7h-18" value="x.[y-n]&lt;span style=&quot;background-color: initial;&quot;&gt;.w&lt;/span&gt;" style="rounded=1;whiteSpace=wrap;html=1;" parent="1" vertex="1">
          <mxGeometry x="57.5" y="770" width="72.5" height="23.75" as="geometry" />
        </mxCell>
        <mxCell id="iaNGk2XYDdVEJVMVyS7h-19" value="" style="endArrow=classic;html=1;rounded=0;exitX=0.5;exitY=1;exitDx=0;exitDy=0;entryX=0.5;entryY=0;entryDx=0;entryDy=0;" parent="1" source="iaNGk2XYDdVEJVMVyS7h-18" target="iaNGk2XYDdVEJVMVyS7h-17" edge="1">
          <mxGeometry width="50" height="50" relative="1" as="geometry">
            <mxPoint x="95" y="793.75" as="sourcePoint" />
            <mxPoint x="95" y="843.75" as="targetPoint" />
          </mxGeometry>
        </mxCell>
        <mxCell id="iaNGk2XYDdVEJVMVyS7h-26" value="" style="endArrow=classic;html=1;rounded=0;exitX=1;exitY=0.5;exitDx=0;exitDy=0;entryX=0;entryY=0.5;entryDx=0;entryDy=0;" parent="1" source="iaNGk2XYDdVEJVMVyS7h-12" target="iaNGk2XYDdVEJVMVyS7h-24" edge="1">
          <mxGeometry width="50" height="50" relative="1" as="geometry">
            <mxPoint x="460" y="660" as="sourcePoint" />
            <mxPoint x="510" y="610" as="targetPoint" />
          </mxGeometry>
        </mxCell>
        <mxCell id="iaNGk2XYDdVEJVMVyS7h-29" value="x.y.[z+1]" style="rounded=1;whiteSpace=wrap;html=1;" parent="1" vertex="1">
          <mxGeometry x="727.5" y="430" width="80" height="30" as="geometry" />
        </mxCell>
        <mxCell id="iaNGk2XYDdVEJVMVyS7h-30" value="" style="endArrow=classic;html=1;rounded=0;exitX=0.5;exitY=1;exitDx=0;exitDy=0;entryX=0.5;entryY=0;entryDx=0;entryDy=0;" parent="1" source="iaNGk2XYDdVEJVMVyS7h-29" target="iaNGk2XYDdVEJVMVyS7h-9" edge="1">
          <mxGeometry width="50" height="50" relative="1" as="geometry">
            <mxPoint x="545" y="660" as="sourcePoint" />
            <mxPoint x="595" y="610" as="targetPoint" />
          </mxGeometry>
        </mxCell>
        <mxCell id="iaNGk2XYDdVEJVMVyS7h-31" value="" style="endArrow=none;dashed=1;html=1;rounded=0;exitX=0;exitY=0.5;exitDx=0;exitDy=0;entryX=1;entryY=0.5;entryDx=0;entryDy=0;" parent="1" source="iaNGk2XYDdVEJVMVyS7h-63" target="iaNGk2XYDdVEJVMVyS7h-1" edge="1">
          <mxGeometry width="50" height="50" relative="1" as="geometry">
            <mxPoint x="460" y="420" as="sourcePoint" />
            <mxPoint x="510" y="370" as="targetPoint" />
          </mxGeometry>
        </mxCell>
        <mxCell id="iaNGk2XYDdVEJVMVyS7h-32" value="" style="endArrow=none;dashed=1;html=1;rounded=0;exitX=0;exitY=0.5;exitDx=0;exitDy=0;entryX=1;entryY=0.5;entryDx=0;entryDy=0;" parent="1" source="iaNGk2XYDdVEJVMVyS7h-1" target="iaNGk2XYDdVEJVMVyS7h-7" edge="1">
          <mxGeometry width="50" height="50" relative="1" as="geometry">
            <mxPoint x="60" y="200" as="sourcePoint" />
            <mxPoint x="1150" y="200" as="targetPoint" />
          </mxGeometry>
        </mxCell>
        <mxCell id="iaNGk2XYDdVEJVMVyS7h-37" value="" style="endArrow=none;dashed=1;html=1;rounded=0;exitX=0;exitY=0.5;exitDx=0;exitDy=0;entryX=1;entryY=0.5;entryDx=0;entryDy=0;" parent="1" source="iaNGk2XYDdVEJVMVyS7h-7" target="iaNGk2XYDdVEJVMVyS7h-23" edge="1">
          <mxGeometry width="50" height="50" relative="1" as="geometry">
            <mxPoint x="80" y="200" as="sourcePoint" />
            <mxPoint x="1150" y="200" as="targetPoint" />
          </mxGeometry>
        </mxCell>
        <mxCell id="iaNGk2XYDdVEJVMVyS7h-39" value="cherry pick" style="shape=process;whiteSpace=wrap;html=1;backgroundOutline=1;" parent="1" vertex="1">
          <mxGeometry x="462.5" y="597.62" width="100" height="31.25" as="geometry" />
        </mxCell>
        <mxCell id="IDo8giDAqHnxsnsfCkda-28" style="edgeStyle=orthogonalEdgeStyle;rounded=0;orthogonalLoop=1;jettySize=auto;html=1;exitX=1;exitY=0.5;exitDx=0;exitDy=0;entryX=0;entryY=0.5;entryDx=0;entryDy=0;" edge="1" parent="1" source="iaNGk2XYDdVEJVMVyS7h-41" target="iaNGk2XYDdVEJVMVyS7h-39">
          <mxGeometry relative="1" as="geometry" />
        </mxCell>
        <mxCell id="iaNGk2XYDdVEJVMVyS7h-41" value="hotfix" style="rhombus;whiteSpace=wrap;html=1;" parent="1" vertex="1">
          <mxGeometry x="332.5" y="584.5" width="85" height="57.5" as="geometry" />
        </mxCell>
        <mxCell id="iaNGk2XYDdVEJVMVyS7h-43" value="" style="endArrow=classic;html=1;rounded=0;exitX=1;exitY=0.5;exitDx=0;exitDy=0;entryX=0;entryY=0.5;entryDx=0;entryDy=0;" parent="1" source="iaNGk2XYDdVEJVMVyS7h-23" target="iaNGk2XYDdVEJVMVyS7h-63" edge="1">
          <mxGeometry width="50" height="50" relative="1" as="geometry">
            <mxPoint x="920" y="460" as="sourcePoint" />
            <mxPoint x="970" y="410" as="targetPoint" />
          </mxGeometry>
        </mxCell>
        <mxCell id="iaNGk2XYDdVEJVMVyS7h-7" value="M" style="ellipse;whiteSpace=wrap;html=1;aspect=fixed;" parent="1" vertex="1">
          <mxGeometry x="80" y="185" width="30" height="30" as="geometry" />
        </mxCell>
        <mxCell id="iaNGk2XYDdVEJVMVyS7h-25" value="" style="endArrow=none;dashed=1;html=1;rounded=0;exitX=0;exitY=0.5;exitDx=0;exitDy=0;entryX=1;entryY=0.5;entryDx=0;entryDy=0;" parent="1" source="iaNGk2XYDdVEJVMVyS7h-12" target="iaNGk2XYDdVEJVMVyS7h-24" edge="1">
          <mxGeometry width="50" height="50" relative="1" as="geometry">
            <mxPoint x="60" y="360" as="sourcePoint" />
            <mxPoint x="1150" y="360" as="targetPoint" />
          </mxGeometry>
        </mxCell>
        <mxCell id="IDo8giDAqHnxsnsfCkda-46" style="edgeStyle=orthogonalEdgeStyle;rounded=0;orthogonalLoop=1;jettySize=auto;html=1;exitX=1;exitY=0.5;exitDx=0;exitDy=0;entryX=0;entryY=0.5;entryDx=0;entryDy=0;" edge="1" parent="1" source="iaNGk2XYDdVEJVMVyS7h-24" target="IDo8giDAqHnxsnsfCkda-44">
          <mxGeometry relative="1" as="geometry" />
        </mxCell>
        <mxCell id="iaNGk2XYDdVEJVMVyS7h-24" value="A" style="ellipse;whiteSpace=wrap;html=1;aspect=fixed;" parent="1" vertex="1">
          <mxGeometry x="360" y="345" width="30" height="30" as="geometry" />
        </mxCell>
        <mxCell id="iaNGk2XYDdVEJVMVyS7h-46" value="" style="endArrow=none;dashed=1;html=1;rounded=0;exitX=0;exitY=0.5;exitDx=0;exitDy=0;entryX=1;entryY=0.5;entryDx=0;entryDy=0;" parent="1" source="iaNGk2XYDdVEJVMVyS7h-15" target="iaNGk2XYDdVEJVMVyS7h-17" edge="1">
          <mxGeometry width="50" height="50" relative="1" as="geometry">
            <mxPoint x="60" y="853.75" as="sourcePoint" />
            <mxPoint x="1150" y="853.75" as="targetPoint" />
          </mxGeometry>
        </mxCell>
        <mxCell id="iaNGk2XYDdVEJVMVyS7h-48" value="x.[y-n].[w+1]" style="rounded=1;whiteSpace=wrap;html=1;" parent="1" vertex="1">
          <mxGeometry x="727.5" y="743.75" width="80" height="30" as="geometry" />
        </mxCell>
        <mxCell id="iaNGk2XYDdVEJVMVyS7h-49" value="" style="endArrow=none;dashed=1;html=1;rounded=0;exitX=0;exitY=0.5;exitDx=0;exitDy=0;entryX=1;entryY=0.5;entryDx=0;entryDy=0;" parent="1" source="iaNGk2XYDdVEJVMVyS7h-17" target="iaNGk2XYDdVEJVMVyS7h-22" edge="1">
          <mxGeometry width="50" height="50" relative="1" as="geometry">
            <mxPoint x="80" y="853.75" as="sourcePoint" />
            <mxPoint x="1150" y="853.75" as="targetPoint" />
          </mxGeometry>
        </mxCell>
        <mxCell id="IDo8giDAqHnxsnsfCkda-49" style="edgeStyle=orthogonalEdgeStyle;rounded=0;orthogonalLoop=1;jettySize=auto;html=1;exitX=1;exitY=0.5;exitDx=0;exitDy=0;entryX=0;entryY=0.5;entryDx=0;entryDy=0;dashed=1;" edge="1" parent="1" source="iaNGk2XYDdVEJVMVyS7h-22" target="IDo8giDAqHnxsnsfCkda-48">
          <mxGeometry relative="1" as="geometry" />
        </mxCell>
        <mxCell id="iaNGk2XYDdVEJVMVyS7h-22" value="D" style="ellipse;whiteSpace=wrap;html=1;aspect=fixed;" parent="1" vertex="1">
          <mxGeometry x="752.5" y="838.75" width="30" height="30" as="geometry" />
        </mxCell>
        <mxCell id="iaNGk2XYDdVEJVMVyS7h-50" value="" style="endArrow=classic;html=1;rounded=0;exitX=0.5;exitY=1;exitDx=0;exitDy=0;entryX=0.5;entryY=0;entryDx=0;entryDy=0;" parent="1" source="iaNGk2XYDdVEJVMVyS7h-48" target="iaNGk2XYDdVEJVMVyS7h-22" edge="1">
          <mxGeometry width="50" height="50" relative="1" as="geometry">
            <mxPoint x="530" y="723.75" as="sourcePoint" />
            <mxPoint x="580" y="673.75" as="targetPoint" />
          </mxGeometry>
        </mxCell>
        <mxCell id="iaNGk2XYDdVEJVMVyS7h-51" value="" style="endArrow=classic;html=1;rounded=0;exitX=1;exitY=0.5;exitDx=0;exitDy=0;entryX=0;entryY=0.5;entryDx=0;entryDy=0;" parent="1" source="iaNGk2XYDdVEJVMVyS7h-17" target="iaNGk2XYDdVEJVMVyS7h-22" edge="1">
          <mxGeometry width="50" height="50" relative="1" as="geometry">
            <mxPoint x="460" y="723.75" as="sourcePoint" />
            <mxPoint x="510" y="673.75" as="targetPoint" />
          </mxGeometry>
        </mxCell>
        <mxCell id="iaNGk2XYDdVEJVMVyS7h-52" value="" style="endArrow=none;dashed=1;html=1;rounded=0;exitX=0;exitY=0.5;exitDx=0;exitDy=0;entryX=1;entryY=0.5;entryDx=0;entryDy=0;" parent="1" source="iaNGk2XYDdVEJVMVyS7h-9" target="iaNGk2XYDdVEJVMVyS7h-3" edge="1">
          <mxGeometry width="50" height="50" relative="1" as="geometry">
            <mxPoint x="520" y="600" as="sourcePoint" />
            <mxPoint x="570" y="550" as="targetPoint" />
          </mxGeometry>
        </mxCell>
        <mxCell id="iaNGk2XYDdVEJVMVyS7h-53" value="" style="endArrow=none;dashed=1;html=1;rounded=0;exitX=0;exitY=0.5;exitDx=0;exitDy=0;entryX=1;entryY=0.5;entryDx=0;entryDy=0;" parent="1" source="iaNGk2XYDdVEJVMVyS7h-3" target="iaNGk2XYDdVEJVMVyS7h-8" edge="1">
          <mxGeometry width="50" height="50" relative="1" as="geometry">
            <mxPoint x="60" y="520" as="sourcePoint" />
            <mxPoint x="1150" y="520" as="targetPoint" />
          </mxGeometry>
        </mxCell>
        <mxCell id="iaNGk2XYDdVEJVMVyS7h-54" value="" style="endArrow=none;dashed=1;html=1;rounded=0;exitX=0;exitY=0.5;exitDx=0;exitDy=0;entryX=1;entryY=0.5;entryDx=0;entryDy=0;" parent="1" source="iaNGk2XYDdVEJVMVyS7h-8" target="iaNGk2XYDdVEJVMVyS7h-9" edge="1">
          <mxGeometry width="50" height="50" relative="1" as="geometry">
            <mxPoint x="80" y="520" as="sourcePoint" />
            <mxPoint x="1150" y="520" as="targetPoint" />
          </mxGeometry>
        </mxCell>
        <mxCell id="iaNGk2XYDdVEJVMVyS7h-8" value="Q" style="ellipse;whiteSpace=wrap;html=1;aspect=fixed;" parent="1" vertex="1">
          <mxGeometry x="80" y="505" width="30" height="30" as="geometry" />
        </mxCell>
        <mxCell id="iaNGk2XYDdVEJVMVyS7h-9" value="B" style="ellipse;whiteSpace=wrap;html=1;aspect=fixed;" parent="1" vertex="1">
          <mxGeometry x="752.5" y="505" width="30" height="30" as="geometry" />
        </mxCell>
        <mxCell id="iaNGk2XYDdVEJVMVyS7h-17" value="W" style="ellipse;whiteSpace=wrap;html=1;aspect=fixed;" parent="1" vertex="1">
          <mxGeometry x="80" y="838.75" width="30" height="30" as="geometry" />
        </mxCell>
        <mxCell id="iaNGk2XYDdVEJVMVyS7h-55" value="" style="rounded=1;whiteSpace=wrap;html=1;fillColor=#b0e3e6;strokeColor=#0e8088;" parent="1" vertex="1">
          <mxGeometry x="60" width="1090" height="80" as="geometry" />
        </mxCell>
        <mxCell id="iaNGk2XYDdVEJVMVyS7h-56" value="&lt;h2&gt;release-x.[y+1]&lt;/h2&gt;" style="rounded=1;whiteSpace=wrap;html=1;" parent="1" vertex="1">
          <mxGeometry x="-130" width="140" height="60" as="geometry" />
        </mxCell>
        <mxCell id="iaNGk2XYDdVEJVMVyS7h-57" value="" style="endArrow=none;dashed=1;html=1;rounded=0;exitX=0;exitY=0.5;exitDx=0;exitDy=0;entryX=1;entryY=0.5;entryDx=0;entryDy=0;" parent="1" source="iaNGk2XYDdVEJVMVyS7h-62" target="iaNGk2XYDdVEJVMVyS7h-55" edge="1">
          <mxGeometry width="50" height="50" relative="1" as="geometry">
            <mxPoint x="640" y="40" as="sourcePoint" />
            <mxPoint x="510" y="210" as="targetPoint" />
          </mxGeometry>
        </mxCell>
        <mxCell id="iaNGk2XYDdVEJVMVyS7h-58" value="" style="endArrow=none;dashed=1;html=1;rounded=0;exitX=0;exitY=0.5;exitDx=0;exitDy=0;entryX=1;entryY=0.5;entryDx=0;entryDy=0;" parent="1" source="iaNGk2XYDdVEJVMVyS7h-55" edge="1">
          <mxGeometry width="50" height="50" relative="1" as="geometry">
            <mxPoint x="60" y="40" as="sourcePoint" />
            <mxPoint x="110" y="40" as="targetPoint" />
          </mxGeometry>
        </mxCell>
        <mxCell id="iaNGk2XYDdVEJVMVyS7h-59" value="" style="endArrow=none;dashed=1;html=1;rounded=0;exitX=0;exitY=0.5;exitDx=0;exitDy=0;entryX=1;entryY=0.5;entryDx=0;entryDy=0;" parent="1" edge="1">
          <mxGeometry width="50" height="50" relative="1" as="geometry">
            <mxPoint x="80" y="40" as="sourcePoint" />
            <mxPoint x="670" y="40" as="targetPoint" />
          </mxGeometry>
        </mxCell>
        <mxCell id="iaNGk2XYDdVEJVMVyS7h-64" value="" style="endArrow=none;dashed=1;html=1;rounded=0;exitX=0;exitY=0.5;exitDx=0;exitDy=0;entryX=1;entryY=0.5;entryDx=0;entryDy=0;" parent="1" source="iaNGk2XYDdVEJVMVyS7h-23" target="iaNGk2XYDdVEJVMVyS7h-63" edge="1">
          <mxGeometry width="50" height="50" relative="1" as="geometry">
            <mxPoint x="640" y="200" as="sourcePoint" />
            <mxPoint x="1150" y="200" as="targetPoint" />
          </mxGeometry>
        </mxCell>
        <mxCell id="iaNGk2XYDdVEJVMVyS7h-63" value="R" style="ellipse;whiteSpace=wrap;html=1;aspect=fixed;" parent="1" vertex="1">
          <mxGeometry x="750" y="185" width="30" height="30" as="geometry" />
        </mxCell>
        <mxCell id="iaNGk2XYDdVEJVMVyS7h-23" value="E" style="ellipse;whiteSpace=wrap;html=1;aspect=fixed;" parent="1" vertex="1">
          <mxGeometry x="640" y="185" width="30" height="30" as="geometry" />
        </mxCell>
        <mxCell id="iaNGk2XYDdVEJVMVyS7h-66" value="new release" style="shape=process;whiteSpace=wrap;html=1;backgroundOutline=1;" parent="1" vertex="1">
          <mxGeometry x="715" y="110" width="100" height="30" as="geometry" />
        </mxCell>
        <mxCell id="iaNGk2XYDdVEJVMVyS7h-67" value="" style="endArrow=classic;html=1;rounded=0;exitX=0.5;exitY=0;exitDx=0;exitDy=0;entryX=0.5;entryY=1;entryDx=0;entryDy=0;" parent="1" source="iaNGk2XYDdVEJVMVyS7h-63" target="iaNGk2XYDdVEJVMVyS7h-66" edge="1">
          <mxGeometry width="50" height="50" relative="1" as="geometry">
            <mxPoint x="570" y="200" as="sourcePoint" />
            <mxPoint x="620" y="150" as="targetPoint" />
          </mxGeometry>
        </mxCell>
        <mxCell id="iaNGk2XYDdVEJVMVyS7h-68" value="" style="endArrow=classic;html=1;rounded=0;entryX=0.5;entryY=1;entryDx=0;entryDy=0;exitX=0.5;exitY=0;exitDx=0;exitDy=0;" parent="1" source="iaNGk2XYDdVEJVMVyS7h-66" target="iaNGk2XYDdVEJVMVyS7h-62" edge="1">
          <mxGeometry width="50" height="50" relative="1" as="geometry">
            <mxPoint x="570" y="200" as="sourcePoint" />
            <mxPoint x="620" y="150" as="targetPoint" />
          </mxGeometry>
        </mxCell>
        <mxCell id="iaNGk2XYDdVEJVMVyS7h-69" value="" style="endArrow=none;dashed=1;html=1;rounded=0;exitX=0;exitY=0.5;exitDx=0;exitDy=0;entryX=1;entryY=0.5;entryDx=0;entryDy=0;" parent="1" target="iaNGk2XYDdVEJVMVyS7h-62" edge="1">
          <mxGeometry width="50" height="50" relative="1" as="geometry">
            <mxPoint x="640" y="40" as="sourcePoint" />
            <mxPoint x="1150" y="40" as="targetPoint" />
          </mxGeometry>
        </mxCell>
        <mxCell id="iaNGk2XYDdVEJVMVyS7h-62" value="R" style="ellipse;whiteSpace=wrap;html=1;aspect=fixed;" parent="1" vertex="1">
          <mxGeometry x="750" y="25" width="30" height="30" as="geometry" />
        </mxCell>
        <mxCell id="iaNGk2XYDdVEJVMVyS7h-70" value="merge" style="shape=process;whiteSpace=wrap;html=1;backgroundOutline=1;" parent="1" vertex="1">
          <mxGeometry x="330" y="270" width="90" height="30" as="geometry" />
        </mxCell>
        <mxCell id="iaNGk2XYDdVEJVMVyS7h-71" value="" style="endArrow=classic;html=1;rounded=0;exitX=0.5;exitY=0;exitDx=0;exitDy=0;entryX=0.5;entryY=1;entryDx=0;entryDy=0;" parent="1" source="iaNGk2XYDdVEJVMVyS7h-24" target="iaNGk2XYDdVEJVMVyS7h-70" edge="1">
          <mxGeometry width="50" height="50" relative="1" as="geometry">
            <mxPoint x="350" y="500" as="sourcePoint" />
            <mxPoint x="400" y="450" as="targetPoint" />
          </mxGeometry>
        </mxCell>
        <mxCell id="iaNGk2XYDdVEJVMVyS7h-76" value="x.[y+1].0" style="rounded=1;whiteSpace=wrap;html=1;" parent="1" vertex="1">
          <mxGeometry x="725" y="-50" width="80" height="20" as="geometry" />
        </mxCell>
        <mxCell id="iaNGk2XYDdVEJVMVyS7h-77" value="" style="endArrow=classic;html=1;rounded=0;entryX=0.5;entryY=0;entryDx=0;entryDy=0;exitX=0.5;exitY=1;exitDx=0;exitDy=0;" parent="1" source="iaNGk2XYDdVEJVMVyS7h-76" target="iaNGk2XYDdVEJVMVyS7h-62" edge="1">
          <mxGeometry width="50" height="50" relative="1" as="geometry">
            <mxPoint x="350" y="200" as="sourcePoint" />
            <mxPoint x="400" y="150" as="targetPoint" />
          </mxGeometry>
        </mxCell>
        <mxCell id="iaNGk2XYDdVEJVMVyS7h-79" value="" style="endArrow=classic;html=1;rounded=0;exitX=1;exitY=0;exitDx=0;exitDy=0;entryX=0.5;entryY=1;entryDx=0;entryDy=0;" parent="1" source="iaNGk2XYDdVEJVMVyS7h-8" target="IDo8giDAqHnxsnsfCkda-42" edge="1">
          <mxGeometry width="50" height="50" relative="1" as="geometry">
            <mxPoint x="250" y="490" as="sourcePoint" />
            <mxPoint x="300" y="440" as="targetPoint" />
          </mxGeometry>
        </mxCell>
        <mxCell id="iaNGk2XYDdVEJVMVyS7h-80" value="fix" style="rhombus;whiteSpace=wrap;html=1;" parent="1" vertex="1">
          <mxGeometry x="470" y="418.75" width="60" height="52.5" as="geometry" />
        </mxCell>
        <mxCell id="iaNGk2XYDdVEJVMVyS7h-81" value="" style="endArrow=classic;html=1;rounded=0;exitX=1;exitY=0.5;exitDx=0;exitDy=0;entryX=0;entryY=1;entryDx=0;entryDy=0;" parent="1" source="iaNGk2XYDdVEJVMVyS7h-70" target="iaNGk2XYDdVEJVMVyS7h-23" edge="1">
          <mxGeometry width="50" height="50" relative="1" as="geometry">
            <mxPoint x="415" y="310" as="sourcePoint" />
            <mxPoint x="465" y="260" as="targetPoint" />
          </mxGeometry>
        </mxCell>
        <mxCell id="iaNGk2XYDdVEJVMVyS7h-83" value="" style="endArrow=classic;html=1;rounded=0;exitX=1;exitY=1;exitDx=0;exitDy=0;entryX=0;entryY=0.5;entryDx=0;entryDy=0;" parent="1" source="iaNGk2XYDdVEJVMVyS7h-24" target="iaNGk2XYDdVEJVMVyS7h-80" edge="1">
          <mxGeometry width="50" height="50" relative="1" as="geometry">
            <mxPoint x="250" y="490" as="sourcePoint" />
            <mxPoint x="300" y="440" as="targetPoint" />
          </mxGeometry>
        </mxCell>
        <mxCell id="iaNGk2XYDdVEJVMVyS7h-85" value="release fix" style="shape=process;whiteSpace=wrap;html=1;backgroundOutline=1;" parent="1" vertex="1">
          <mxGeometry x="565" y="430" width="120" height="30" as="geometry" />
        </mxCell>
        <mxCell id="iaNGk2XYDdVEJVMVyS7h-86" value="" style="endArrow=classic;html=1;rounded=0;entryX=0;entryY=0.5;entryDx=0;entryDy=0;exitX=1;exitY=0.5;exitDx=0;exitDy=0;" parent="1" source="iaNGk2XYDdVEJVMVyS7h-80" target="iaNGk2XYDdVEJVMVyS7h-85" edge="1">
          <mxGeometry width="50" height="50" relative="1" as="geometry">
            <mxPoint x="250" y="490" as="sourcePoint" />
            <mxPoint x="300" y="440" as="targetPoint" />
          </mxGeometry>
        </mxCell>
        <mxCell id="iaNGk2XYDdVEJVMVyS7h-87" value="" style="endArrow=classic;html=1;rounded=0;entryX=0;entryY=0.5;entryDx=0;entryDy=0;exitX=0.75;exitY=1;exitDx=0;exitDy=0;" parent="1" source="iaNGk2XYDdVEJVMVyS7h-85" target="iaNGk2XYDdVEJVMVyS7h-9" edge="1">
          <mxGeometry width="50" height="50" relative="1" as="geometry">
            <mxPoint x="250" y="490" as="sourcePoint" />
            <mxPoint x="300" y="440" as="targetPoint" />
          </mxGeometry>
        </mxCell>
        <mxCell id="iaNGk2XYDdVEJVMVyS7h-88" value="deploy test (any commit)" style="rounded=1;whiteSpace=wrap;html=1;" parent="1" vertex="1">
          <mxGeometry x="-130" y="230" width="140" height="15" as="geometry" />
        </mxCell>
        <mxCell id="iaNGk2XYDdVEJVMVyS7h-90" value="deploy prod on tag" style="rounded=1;whiteSpace=wrap;html=1;" parent="1" vertex="1">
          <mxGeometry x="-130" y="540" width="140" height="20" as="geometry" />
        </mxCell>
        <mxCell id="iaNGk2XYDdVEJVMVyS7h-92" value="deploy release on create" style="rounded=1;whiteSpace=wrap;html=1;" parent="1" vertex="1">
          <mxGeometry x="-130" y="60" width="140" height="20" as="geometry" />
        </mxCell>
        <mxCell id="iaNGk2XYDdVEJVMVyS7h-94" value="deploy old prods on tag" style="rounded=1;whiteSpace=wrap;html=1;" parent="1" vertex="1">
          <mxGeometry x="-130" y="873.75" width="140" height="20" as="geometry" />
        </mxCell>
        <mxCell id="IDo8giDAqHnxsnsfCkda-1" value="" style="endArrow=none;dashed=1;html=1;rounded=0;exitX=0;exitY=0.5;exitDx=0;exitDy=0;entryX=1;entryY=0.5;entryDx=0;entryDy=0;" edge="1" parent="1" source="IDo8giDAqHnxsnsfCkda-42" target="iaNGk2XYDdVEJVMVyS7h-12">
          <mxGeometry width="50" height="50" relative="1" as="geometry">
            <mxPoint x="60" y="360" as="sourcePoint" />
            <mxPoint x="350" y="360" as="targetPoint" />
          </mxGeometry>
        </mxCell>
        <mxCell id="iaNGk2XYDdVEJVMVyS7h-12" value="Q|M" style="ellipse;whiteSpace=wrap;html=1;aspect=fixed;" parent="1" vertex="1">
          <mxGeometry x="270" y="345" width="30" height="30" as="geometry" />
        </mxCell>
        <mxCell id="IDo8giDAqHnxsnsfCkda-2" value="" style="rounded=1;whiteSpace=wrap;html=1;fillColor=#b0e3e6;strokeColor=#0e8088;" vertex="1" parent="1">
          <mxGeometry x="57.5" y="660" width="1090" height="70" as="geometry" />
        </mxCell>
        <mxCell id="IDo8giDAqHnxsnsfCkda-3" value="&lt;h2&gt;fix-x.[y-n]&lt;/h2&gt;" style="rounded=1;whiteSpace=wrap;html=1;" vertex="1" parent="1">
          <mxGeometry x="-130" y="660" width="140" height="70" as="geometry" />
        </mxCell>
        <mxCell id="IDo8giDAqHnxsnsfCkda-14" value="" style="endArrow=none;dashed=1;html=1;rounded=0;exitX=0;exitY=0.5;exitDx=0;exitDy=0;entryX=1;entryY=0.5;entryDx=0;entryDy=0;" edge="1" parent="1" source="IDo8giDAqHnxsnsfCkda-29">
          <mxGeometry width="50" height="50" relative="1" as="geometry">
            <mxPoint x="240" y="695" as="sourcePoint" />
            <mxPoint x="475" y="695" as="targetPoint" />
          </mxGeometry>
        </mxCell>
        <mxCell id="IDo8giDAqHnxsnsfCkda-17" value="" style="endArrow=none;dashed=1;html=1;rounded=0;exitX=0;exitY=0.5;exitDx=0;exitDy=0;entryX=1;entryY=0.5;entryDx=0;entryDy=0;" edge="1" parent="1" source="IDo8giDAqHnxsnsfCkda-21">
          <mxGeometry width="50" height="50" relative="1" as="geometry">
            <mxPoint x="58" y="695" as="sourcePoint" />
            <mxPoint x="270" y="695" as="targetPoint" />
          </mxGeometry>
        </mxCell>
        <mxCell id="IDo8giDAqHnxsnsfCkda-20" value="" style="endArrow=classic;html=1;rounded=0;exitX=0.5;exitY=1;exitDx=0;exitDy=0;entryX=0.5;entryY=0;entryDx=0;entryDy=0;" edge="1" parent="1" source="iaNGk2XYDdVEJVMVyS7h-24" target="iaNGk2XYDdVEJVMVyS7h-41">
          <mxGeometry width="50" height="50" relative="1" as="geometry">
            <mxPoint x="510" y="550" as="sourcePoint" />
            <mxPoint x="560" y="500" as="targetPoint" />
          </mxGeometry>
        </mxCell>
        <mxCell id="IDo8giDAqHnxsnsfCkda-21" value="new" style="ellipse;whiteSpace=wrap;html=1;" vertex="1" parent="1">
          <mxGeometry x="170" y="672.5" width="70" height="45" as="geometry" />
        </mxCell>
        <mxCell id="IDo8giDAqHnxsnsfCkda-32" style="edgeStyle=orthogonalEdgeStyle;rounded=0;orthogonalLoop=1;jettySize=auto;html=1;exitX=1;exitY=0.5;exitDx=0;exitDy=0;" edge="1" parent="1" source="IDo8giDAqHnxsnsfCkda-23" target="IDo8giDAqHnxsnsfCkda-29">
          <mxGeometry relative="1" as="geometry" />
        </mxCell>
        <mxCell id="IDo8giDAqHnxsnsfCkda-23" value="W" style="ellipse;whiteSpace=wrap;html=1;aspect=fixed;" vertex="1" parent="1">
          <mxGeometry x="270" y="680" width="30" height="30" as="geometry" />
        </mxCell>
        <mxCell id="IDo8giDAqHnxsnsfCkda-25" value="" style="endArrow=classic;html=1;rounded=0;exitX=1;exitY=0;exitDx=0;exitDy=0;entryX=0;entryY=1;entryDx=0;entryDy=0;" edge="1" parent="1" source="iaNGk2XYDdVEJVMVyS7h-17" target="IDo8giDAqHnxsnsfCkda-21">
          <mxGeometry width="50" height="50" relative="1" as="geometry">
            <mxPoint x="160" y="803.75" as="sourcePoint" />
            <mxPoint x="210" y="753.75" as="targetPoint" />
          </mxGeometry>
        </mxCell>
        <mxCell id="IDo8giDAqHnxsnsfCkda-27" value="" style="endArrow=classic;html=1;rounded=0;exitX=1;exitY=0.5;exitDx=0;exitDy=0;entryX=0;entryY=0.5;entryDx=0;entryDy=0;shape=link;" edge="1" parent="1" source="IDo8giDAqHnxsnsfCkda-21" target="IDo8giDAqHnxsnsfCkda-23">
          <mxGeometry width="50" height="50" relative="1" as="geometry">
            <mxPoint x="510" y="550" as="sourcePoint" />
            <mxPoint x="560" y="500" as="targetPoint" />
          </mxGeometry>
        </mxCell>
        <mxCell id="IDo8giDAqHnxsnsfCkda-41" style="edgeStyle=orthogonalEdgeStyle;rounded=0;orthogonalLoop=1;jettySize=auto;html=1;exitX=1;exitY=0.5;exitDx=0;exitDy=0;" edge="1" parent="1" source="IDo8giDAqHnxsnsfCkda-29" target="IDo8giDAqHnxsnsfCkda-39">
          <mxGeometry relative="1" as="geometry" />
        </mxCell>
        <mxCell id="IDo8giDAqHnxsnsfCkda-29" value="C" style="ellipse;whiteSpace=wrap;html=1;aspect=fixed;" vertex="1" parent="1">
          <mxGeometry x="497.5" y="680" width="30" height="30" as="geometry" />
        </mxCell>
        <mxCell id="IDo8giDAqHnxsnsfCkda-31" style="edgeStyle=orthogonalEdgeStyle;rounded=0;orthogonalLoop=1;jettySize=auto;html=1;exitX=0.5;exitY=1;exitDx=0;exitDy=0;" edge="1" parent="1" source="iaNGk2XYDdVEJVMVyS7h-39" target="IDo8giDAqHnxsnsfCkda-29">
          <mxGeometry relative="1" as="geometry" />
        </mxCell>
        <mxCell id="IDo8giDAqHnxsnsfCkda-34" value="" style="endArrow=classic;html=1;rounded=0;entryX=0;entryY=0;entryDx=0;entryDy=0;exitX=1;exitY=1;exitDx=0;exitDy=0;" edge="1" parent="1" source="IDo8giDAqHnxsnsfCkda-29" target="iaNGk2XYDdVEJVMVyS7h-22">
          <mxGeometry width="50" height="50" relative="1" as="geometry">
            <mxPoint x="480" y="793.75" as="sourcePoint" />
            <mxPoint x="530" y="743.75" as="targetPoint" />
          </mxGeometry>
        </mxCell>
        <mxCell id="IDo8giDAqHnxsnsfCkda-39" value="del" style="ellipse;whiteSpace=wrap;html=1;fillColor=#FA8080;fontColor=#000000;strokeColor=#C73500;fillStyle=cross-hatch;" vertex="1" parent="1">
          <mxGeometry x="607.5" y="672.5" width="70" height="45" as="geometry" />
        </mxCell>
        <mxCell id="IDo8giDAqHnxsnsfCkda-43" style="edgeStyle=orthogonalEdgeStyle;rounded=0;orthogonalLoop=1;jettySize=auto;html=1;exitX=1;exitY=0.5;exitDx=0;exitDy=0;entryX=0;entryY=0.5;entryDx=0;entryDy=0;shape=link;" edge="1" parent="1" source="IDo8giDAqHnxsnsfCkda-42" target="iaNGk2XYDdVEJVMVyS7h-12">
          <mxGeometry relative="1" as="geometry" />
        </mxCell>
        <mxCell id="IDo8giDAqHnxsnsfCkda-44" value="del" style="ellipse;whiteSpace=wrap;html=1;fillColor=#FA8080;fontColor=#000000;strokeColor=#C73500;fillStyle=cross-hatch;" vertex="1" parent="1">
          <mxGeometry x="607.5" y="337.5" width="70" height="45" as="geometry" />
        </mxCell>
        <mxCell id="IDo8giDAqHnxsnsfCkda-48" value="del" style="ellipse;whiteSpace=wrap;html=1;fillColor=#FA8080;fontColor=#000000;strokeColor=#C73500;fillStyle=cross-hatch;" vertex="1" parent="1">
          <mxGeometry x="1060" y="831.25" width="70" height="45" as="geometry" />
        </mxCell>
        <mxCell id="IDo8giDAqHnxsnsfCkda-52" value="" style="endArrow=classic;html=1;rounded=0;exitX=1;exitY=1;exitDx=0;exitDy=0;entryX=0.5;entryY=0;entryDx=0;entryDy=0;dashed=1;" edge="1" parent="1" source="iaNGk2XYDdVEJVMVyS7h-7" target="IDo8giDAqHnxsnsfCkda-42">
          <mxGeometry width="50" height="50" relative="1" as="geometry">
            <mxPoint x="510" y="550" as="sourcePoint" />
            <mxPoint x="560" y="500" as="targetPoint" />
          </mxGeometry>
        </mxCell>
        <mxCell id="IDo8giDAqHnxsnsfCkda-53" value="" style="endArrow=none;dashed=1;html=1;rounded=0;exitX=0;exitY=0.5;exitDx=0;exitDy=0;entryX=1;entryY=0.5;entryDx=0;entryDy=0;" edge="1" parent="1" source="iaNGk2XYDdVEJVMVyS7h-5" target="IDo8giDAqHnxsnsfCkda-42">
          <mxGeometry width="50" height="50" relative="1" as="geometry">
            <mxPoint x="60" y="360" as="sourcePoint" />
            <mxPoint x="300" y="360" as="targetPoint" />
          </mxGeometry>
        </mxCell>
        <mxCell id="IDo8giDAqHnxsnsfCkda-42" value="new" style="ellipse;whiteSpace=wrap;html=1;" vertex="1" parent="1">
          <mxGeometry x="160" y="337.5" width="70" height="45" as="geometry" />
        </mxCell>
      </root>
    </mxGraphModel>
  </diagram>
</mxfile>
